<svg width="946" height="946" viewBox="0 0 946 946" fill="none" xmlns="http://www.w3.org/2000/svg">
<path d="M887.952 459.038C880.41 450.015 870.468 442.977 861.554 434.965C862.943 433.196 865.163 430.706 867.021 427.963C883.748 403.439 886.635 376.406 880.933 348.001C873.589 311.332 854.932 280.455 830.988 252.502C797.102 212.909 754.7 184.848 707.426 163.987C623.902 127.137 536.21 114.613 445.487 120.316C407.307 122.716 369.596 127.931 332.462 137.153C276.112 151.138 223.317 172.992 176.692 208.254C140.695 235.485 110.725 267.986 92.0497 309.546C75.8826 345.529 70.0185 382.162 90.2453 419.193C73.4467 426.953 59.3367 437.888 48.7812 453.155C26.2808 485.674 34.1478 526.656 67.1856 545.803C72.8513 549.088 74.6918 552.39 73.537 558.237C73.3024 559.5 73.3024 560.817 73.2844 562.099C72.9054 582.852 77.687 602.016 91.2377 618.222C93.7097 621.163 93.6556 623.238 92.1579 626.469C84.9225 642.223 83.3346 658.717 86.6005 675.662C92.9338 708.704 111.735 733.806 137.646 754.035C165.74 775.943 198.29 788.503 232.284 797.743C305.686 817.684 380.819 825.245 456.548 827.464C525.312 829.486 593.824 825.858 661.884 815.356C697.051 809.924 731.875 802.94 765.526 791.03C798.726 779.282 829.094 762.95 851.035 734.492C876.151 701.937 884.488 666.801 864.225 627.876C865.289 626.288 866.318 624.772 867.328 623.22C877.487 607.629 879.526 590.268 878.01 572.24C877.739 568.992 878.623 567.44 881.33 565.708C892.589 558.508 900.42 548.257 904.714 535.734C914.62 506.914 906.663 481.433 887.952 459.038ZM115.362 355.491C121.515 322.936 138.963 296.21 160.94 272.208C198.11 231.641 244.662 205.799 295.726 187.32C338.778 171.747 383.345 163.139 428.905 159.187C462.99 156.245 497.146 155.451 531.212 158.411C602.088 164.582 669.823 181.834 731.676 218.269C772.202 242.144 806.467 272.696 829.707 314.292C839.974 332.644 847.336 352.044 847.354 373.5C847.354 395.859 837.664 413.346 817.51 422.585C800.044 430.58 781.603 437.311 762.91 441.57C730.81 448.896 698.314 454.689 665.745 459.616C612.372 467.682 558.53 470.01 482.657 471.057C459.381 469.848 414.164 468.585 369.127 464.885C307.562 459.814 246.467 450.863 187.103 432.998C172.867 428.721 159.009 423 145.35 417.099C118.014 405.297 109.913 384.328 115.362 355.491ZM837.592 681.058C831.187 705.059 815.579 722.022 795.37 735.177C771.715 750.553 745.137 758.763 718.054 765.531C682.58 774.373 646.511 779.715 610.171 783.486C566.235 788.034 522.191 790.362 478.02 789.821C407.596 788.936 337.677 782.981 268.768 767.805C236.669 760.73 205.075 751.96 176.44 735.141C156.032 723.141 138.909 707.675 128.516 685.894C123.103 674.561 120.071 662.633 122.615 649.946C124.059 642.818 124.871 642.493 131.601 644.894C171.441 659.06 212.527 668.281 254.045 675.752C299.28 683.909 344.93 689.052 390.743 692.066C447.526 695.819 504.4 697.534 561.237 693.672C600.806 690.965 640.394 688.005 679.747 683.187C731.532 676.835 782.686 666.693 832.576 650.957C832.883 650.849 833.244 650.867 833.947 650.813C839.343 660.341 840.407 670.483 837.592 681.058ZM835.878 604.615C832.522 608.657 827.885 612.754 823.031 614.27C783.407 626.703 742.972 635.907 701.832 641.356C663.454 646.445 624.985 651.119 586.408 654.223C537.076 658.193 487.565 658.608 438.089 656.082C408.245 654.548 378.347 653.104 348.629 650.091C277.032 642.818 206.247 631.269 137.88 607.52C120.378 601.439 112.601 589.384 110.508 572.457C108.902 559.464 110.707 546.669 115.488 534.416C118.826 525.917 121.804 523.931 130.771 523.913C146.451 523.895 162.131 523.913 178.605 523.913C178.605 529.67 178.695 535.138 178.587 540.606C178.28 556.577 181.798 571.41 191.975 584.061C210.199 606.744 234.63 614.811 262.489 610.66C297.241 605.499 327.013 588.59 354.331 567.152C358.337 564.012 362.252 562.496 367.359 562.55C388.415 562.766 409.472 562.604 430.529 562.622C440.219 562.622 445.523 566.574 448.176 575.904C450.143 582.797 451.315 589.98 453.86 596.639C461.943 617.987 476.071 633.2 499.365 637.422C519.809 641.122 537.095 633.687 551.962 620.062C563.998 609.072 573.29 595.827 578.847 580.632C583.9 566.845 591.821 560.745 606.977 562.171C621.448 563.506 636.136 562.857 650.715 562.351C658.42 562.081 664.031 564.697 669.228 570.147C674.551 575.723 680.162 581.282 686.459 585.649C717.422 607.123 758.002 606.564 788.405 584.115C795.208 579.098 801.902 576.698 810.292 577.149C820.559 577.69 830.88 577.275 841.381 577.275C842.41 587.399 842.266 596.909 835.878 604.615ZM845.423 538.928C831.584 538.549 817.708 539.234 803.887 538.819C791.852 538.458 781.621 541.851 772.202 549.448C758.309 560.655 742.304 565.166 724.513 561.702C714.427 559.735 706 554.61 698.783 547.409C694.218 542.844 689.851 538.061 685.124 533.658C677.961 526.963 669.408 523.715 659.484 523.769C638.066 523.913 616.649 523.968 595.213 523.733C579.948 523.571 567.913 529.851 559.108 541.815C554.254 548.42 550.447 555.909 546.91 563.38C542.309 573.107 537.546 582.671 529.534 590.07C526.431 592.921 523.039 595.628 519.358 597.595C507.792 603.767 496.677 600.699 490.849 588.987C487.547 582.328 485.616 574.857 483.974 567.531C477.984 540.931 457.631 524.022 430.313 523.805C407.235 523.643 384.157 523.95 361.061 523.787C352.491 523.733 345.273 526.548 338.741 531.89C318.28 548.618 295.87 561.936 270.681 570.237C259.801 573.847 248.722 575.11 237.517 571.645C223.641 567.368 215.648 557.226 215.197 542.771C214.854 531.89 215.161 520.972 214.872 510.09C214.511 495.274 204.822 485.476 190.08 485.313C168.284 485.079 146.487 484.736 124.709 485.349C109.642 485.764 97.6612 493.127 88.856 505.452C87.4847 507.383 86.2757 509.423 84.724 511.823C71.6604 501.302 69.4411 489.446 78.4448 476.11C88.3147 461.474 102.407 452.903 119.747 449.907C122.489 449.438 125.845 449.654 128.299 450.845C161.517 467.051 196.919 476.435 232.862 483.906C282.77 494.282 333.292 500.273 384.103 504.243C450.305 509.404 516.543 510.307 582.781 506.048C653.927 501.464 724.639 493.434 793.331 473.042C801.09 470.732 808.668 467.791 816.373 465.318C818.773 464.56 821.479 463.64 823.843 464.019C846.578 467.646 865.506 482.408 870.991 504.388C876.043 524.599 862.565 539.415 845.423 538.928Z" fill="black"/>
<path d="M304.134 437.654C295.996 437.852 282.121 435.994 266.26 432.583C256.048 430.381 245.131 427.548 234.395 424.498C214.511 418.85 194.537 411.523 176.367 401.833C165.433 396.004 153.001 384.49 152.857 365.65C152.802 358.107 154.625 349.319 156.682 341.721C161.084 324.415 171.117 305.738 182.304 291.879C192.589 278.434 206.266 265.531 216.37 257.501C239.069 239.69 263.536 222.42 290.06 210.87C302.149 205.601 313.318 202.208 320.932 201.956C341.628 200.71 352.112 220.669 349.459 239.04C349.243 241.44 348.9 243.714 348.341 246.06C344.533 262.265 339.102 282.134 325.299 294.224C343.866 310.321 346.5 336.38 346.518 357.818C346.536 384.202 344.786 438.358 304.116 437.636L304.134 437.654ZM257.708 275.926C262.453 274.969 269.039 270.602 270.97 264.954C272.81 259.558 269.4 256.815 265.575 257.79C260.992 258.981 254.424 263.853 252.403 268.96C252.114 269.682 251.97 270.025 251.699 270.747C250.725 275.619 253.756 276.72 257.708 275.926ZM242.154 376.767C247.351 377.037 252.908 373.32 252.998 366.914C252.998 365.632 252.746 364.658 252.511 363.034C250.941 357.8 247.423 355.454 243.399 355.436C236.489 355.4 232.609 359.587 232.483 366.625C232.393 372.454 237.824 376.55 242.154 376.785V376.767Z" fill="black"/>
<path d="M501.729 219.749C502.343 238.481 490.055 259.576 471.199 260.803C469.972 260.876 468.565 260.803 467.284 260.497C464.198 259.793 460.391 258.872 456.855 258.945C454.69 258.999 452.362 259.721 450.539 261.146C448.879 262.446 447.725 264.99 447.689 268.112C447.653 272.281 451.297 273.598 454.888 273.544C456.548 273.508 457.955 273.418 459.543 273.111C461.889 272.66 464.397 272.335 467.049 272.317C470.225 272.281 473.383 272.587 476.396 272.984C486.464 274.266 495.197 279.643 500.123 289.298C502.758 294.658 503.858 300.829 504.381 305.882C507.142 332.915 478.056 340.44 457.558 340.007C455.646 339.971 453.3 339.971 451.622 340.386C448.807 341.072 446.714 343.021 446.75 347.586C446.804 355.96 451.821 358.432 456.855 358.468C459.092 358.468 461.149 358.179 463.17 357.728C465.768 357.133 468.89 356.465 471.055 356.609C490.813 357.945 504.219 378.102 503.948 398.223C503.948 398.945 503.606 400.046 503.606 401.129C503.245 431.157 473.148 451.387 445.596 449.257C438.324 448.698 429.789 447.778 421.183 446.262C406.784 443.717 390.833 439.079 377.86 429.641C342.783 400.948 346.41 343.652 350.38 303.482C351.119 296.047 352.184 288.973 353.032 282.043C356.659 252.322 365.933 219.28 388.379 198.058C401.659 185.335 424.719 177.178 442.564 176.204C449.421 175.825 456.602 175.807 463.495 176.818C471.145 177.918 479.066 179.813 485.797 185.245C494.205 192.048 500.719 204.392 501.693 217.475C501.729 218.395 501.729 218.847 501.765 219.767L501.729 219.749Z" fill="black"/>
<path d="M639.275 234.745C643.931 252.611 635.27 269.321 618.002 267.426C616.667 267.282 615.331 267.101 613.96 266.668C610.73 265.64 606.761 264.322 603.26 263.979C601.113 263.763 598.93 264.196 597.378 265.369C595.971 266.416 595.195 268.762 595.628 271.775C596.205 275.782 599.94 277.406 603.477 277.694C605.101 277.821 606.508 277.875 608.042 277.749C610.333 277.55 612.805 277.514 615.494 277.749C618.724 278.055 622.026 278.669 625.255 279.337C636.1 281.592 643.714 287.349 649.163 296.408C652.104 301.425 653.873 306.839 654.703 311.549C659.502 338.96 632.689 341.739 612.589 341.018C610.658 340.945 608.331 340.909 606.707 341.252C603.982 341.848 602.069 343.688 602.268 348.074C602.647 356.104 607.464 358.45 612.517 358.468C614.754 358.468 616.829 358.197 618.922 357.764C621.593 357.205 624.732 356.7 627.222 356.718C647.449 356.844 658.474 376.261 656.525 394.722C656.453 395.372 656.092 396.383 655.984 397.375C651.545 428.649 618.435 445.468 589.908 447.056C582.997 447.435 575.888 447.218 568.707 446.478C556.744 445.251 544.15 441.931 534.153 432.98C502.343 402.59 506.06 340.422 504.815 300.45C504.562 292.51 504.436 284.841 504.327 277.55C503.894 251.456 501.783 212.946 522.966 192.247C534.749 180.806 557.827 179.055 572.532 182.141C579.082 183.513 586.335 185.209 593.3 187.826C601.095 190.767 609.269 194.466 616.937 200.963C626.537 209.066 635.216 221.138 638.734 232.742C638.951 233.554 639.041 233.951 639.257 234.763L639.275 234.745Z" fill="black"/>
<path d="M779.348 340.53C778.373 340.512 777.886 340.494 776.912 340.476C760.366 340.115 744.217 328.945 748.818 357.602C750.496 368.014 751.146 379.221 749.594 389.507C746.075 412.859 720.038 427.765 699.378 432.547C665.493 440.397 656.417 418.922 659.087 389.615C661.505 363.088 658.708 333.474 654.306 305.449C653.295 299.007 652.285 292.492 651.256 286.248C646.475 257.483 637.309 190.496 688.895 220.128C691.115 221.265 692.233 221.86 694.435 223.033C719.064 235.99 742.394 254.199 762.459 273.381C762.838 273.778 763.018 273.977 763.397 274.392C773.267 284.985 767.276 289.442 751.488 284.859C750.496 284.57 749.395 284.065 748.403 283.776C740.608 280.961 728.916 275.366 732.921 284.841C735.556 291.066 749.792 291.788 756.089 293.322C772.455 297.292 788.315 306.297 795.118 319.471C795.442 320.084 795.605 320.878 795.912 321.51C799.683 331.941 793.44 339.791 779.348 340.512V340.53Z" fill="black"/>
</svg>
